PathFileType	4	(X/Y/Z)	Run_200 02
DataRate	CameraRate	NumFrames	NumMarkers	Units	OrigDataRate	OrigDataStartFrame	OrigNumFrames
120	120	4	42	mm	120	1	128
Frame#	Time	LASI			RASI			LPSI			RPSI			RTH1			RTH2			RTH3			LTH1			LTH2			LTH3			RTB1			RTB2			RTB3			LTB1			LTB2			LTB3			RCAL			RTOE			RMT5			LCAL			LTOE			LMT5			LACR			RACR			CLAV			C7			RUA1			RUA2			RUA3			RLEL			RMEL			LUA1			LUA2			LUA3			LLEL			LMEL			RFAsuperior			RFAradius			RFAulna			LFAsuperior			LFAradius			LFAulna		
		X1	Y1	Z1	X2	Y2	Z2	X3	Y3	Z3	X4	Y4	Z4	X5	Y5	Z5	X6	Y6	Z6	X7	Y7	Z7	X8	Y8	Z8	X9	Y9	Z9	X10	Y10	Z10	X11	Y11	Z11	X12	Y12	Z12	X13	Y13	Z13	X14	Y14	Z14	X15	Y15	Z15	X16	Y16	Z16	X17	Y17	Z17	X18	Y18	Z18	X19	Y19	Z19	X20	Y20	Z20	X21	Y21	Z21	X22	Y22	Z22	X23	Y23	Z23	X24	Y24	Z24	X25	Y25	Z25	X26	Y26	Z26	X27	Y27	Z27	X28	Y28	Z28	X29	Y29	Z29	X30	Y30	Z30	X31	Y31	Z31	X32	Y32	Z32	X33	Y33	Z33	X34	Y34	Z34	X35	Y35	Z35	X36	Y36	Z36	X37	Y37	Z37	X38	Y38	Z38	X39	Y39	Z39	X40	Y40	Z40	X41	Y41	Z41	X42	Y42	Z42	

1	  0.008333	873.669253	1079.536374	-464.401473	884.131491	1087.812248	-205.720499	700.971797	1131.571680	-365.230383	703.404785	1125.603418	-282.211046	859.628514	924.630739	-151.024243	956.563555	845.722002	-164.573697	932.503527	718.684998	-191.272119	774.055870	874.358858	-503.329659	808.634825	743.649023	-485.252938	718.171714	645.441422	-461.891530	1016.881132	454.381446	-277.294492	975.406145	399.382218	-208.057017	946.236370	304.485341	-276.631194	696.831079	406.667908	-390.529075	629.425618	340.235418	-436.684133	590.790623	236.826749	-365.508050	786.307141	193.320675	-282.362921	1002.203837	106.959147	-306.369775	932.476821	 95.062063	-214.971891	425.048177	158.965344	-349.546482	640.531873	 69.385856	-327.910687	565.942656	 61.336490	-416.690038	930.142285	1558.077745	-512.522892	877.855026	1567.405653	-172.020616	946.858399	1504.524618	-298.550242	831.395123	1596.942904	-353.321120	807.292344	1496.073341	-97.516603	761.776253	1416.378871	-104.751802	692.853189	1454.500857	-91.868925	592.562315	1354.804225	-59.999500	578.997899	1359.795702	-142.117883	914.957889	1464.211359	-586.367412	919.522736	1390.965401	-572.446313	825.872295	1379.401314	-594.292858	827.252963	1213.536059	-633.835917	768.268670	1209.457737	-567.068970	662.163633	1271.738326	-55.824622	777.521668	1154.682665	-134.030704	730.986089	1123.265421	-86.664074	917.358909	1221.368066	-592.542518	1029.396666	1261.671477	-455.464965	1043.346771	1192.288917	-473.579499	
2	  0.016667	875.823881	1082.340020	-465.108079	885.495134	1092.706019	-205.200945	702.824604	1135.386179	-365.664206	704.516258	1130.079704	-282.273321	859.606707	928.890400	-149.948973	955.310797	848.619206	-163.427992	930.084452	721.611466	-191.734678	772.740258	877.934099	-502.732894	804.012011	746.936184	-484.940645	711.113008	650.459413	-462.297383	1022.335150	455.179475	-276.761814	983.896840	397.411613	-207.864849	961.608360	300.991470	-277.297758	685.998564	411.580424	-391.739717	617.820557	346.007413	-438.044250	579.254433	242.144359	-367.123840	809.463798	179.895759	-284.683230	1030.417015	108.014237	-308.748785	961.255611	 90.184580	-218.125177	413.952076	167.247605	-350.676906	625.505808	 69.161054	-328.503319	550.491848	 62.606044	-415.937743	932.013596	1562.748181	-511.451518	877.915127	1572.293151	-172.247435	947.302779	1509.159438	-297.382052	832.277512	1600.948706	-353.359419	806.457990	1502.578262	-97.628923	759.910379	1423.618112	-105.244728	691.448603	1462.917510	-93.938809	589.298138	1364.410828	-62.368787	577.042716	1369.243699	-144.617249	917.575265	1469.088043	-585.393208	921.638385	1396.061483	-571.710027	827.964826	1384.822660	-594.011060	828.956892	1218.955146	-634.271819	769.159592	1215.152212	-567.717587	657.868178	1280.566620	-57.258046	773.128645	1162.082620	-133.712483	725.347257	1131.007688	-87.539519	918.519343	1227.884173	-592.209795	1028.224479	1270.792248	-454.054312	1043.552481	1201.574719	-471.632007	
3	  0.025000	877.914613	1085.143525	-465.124530	886.948380	1097.395887	-204.704948	704.796157	1138.981830	-365.945677	705.912607	1134.295612	-282.342890	859.575695	932.803231	-148.920908	953.973633	851.066801	-162.288809	927.255705	724.109268	-192.092833	771.687468	881.451691	-502.260751	799.749715	750.161152	-484.710275	704.539103	655.438550	-462.719295	1027.308585	455.813047	-276.368307	992.072239	395.374799	-207.789459	976.642620	297.741809	-278.007797	675.650617	416.465138	-392.976122	606.667415	351.775041	-439.400261	568.115553	247.464801	-368.866063	832.659696	166.986489	-287.052161	1058.076858	109.917326	-311.195223	989.801652	 86.278041	-221.156753	403.277411	175.656029	-352.013559	610.491807	 68.951594	-329.113236	535.223277	 64.072386	-415.534795	933.836098	1567.139964	-510.322891	878.040063	1577.028742	-172.292603	947.648691	1513.521583	-296.383016	833.167113	1604.758281	-353.333358	805.634815	1508.895213	-97.748116	758.238856	1430.511441	-105.650370	690.170407	1470.870739	-95.925544	586.359784	1373.483106	-64.637132	575.373564	1378.121423	-147.025693	919.980694	1473.713183	-584.360855	923.608675	1400.897724	-570.981652	829.891289	1390.038858	-593.712257	830.519171	1224.176314	-634.661627	770.007064	1220.574956	-568.367528	653.959278	1288.944923	-58.629090	769.113080	1169.049408	-133.445395	720.174820	1138.314525	-88.350922	919.552058	1234.064683	-591.864705	1026.989677	1279.331599	-452.647746	1043.605976	1210.259886	-469.712146	
4	  0.033333	879.963148	1087.898086	-464.340946	888.543241	1101.705352	-204.260459	706.935718	1142.213792	-366.022601	707.713668	1138.084154	-282.413464	859.588131	936.186364	-147.964954	952.531353	852.793993	-161.187071	923.841260	725.925915	-192.268916	771.036003	884.842182	-501.996784	796.076353	753.258488	-484.613895	698.782125	660.324409	-463.128933	1031.520377	456.183955	-276.168626	999.678600	393.273378	-207.863152	991.074885	294.918229	-278.782286	666.143409	421.273877	-394.226689	596.322268	357.506908	-440.762779	557.657806	252.769696	-370.783875	855.810239	155.002111	-289.495858	1084.701566	113.159828	-313.648342	1017.797220	 83.969540	-223.966596	393.337615	184.282542	-353.665620	595.530133	 68.779735	-329.764143	520.288348	 65.920862	-415.780165	935.567197	1571.086419	-509.129566	878.265617	1581.484371	-172.130100	947.909964	1517.450410	-295.594403	834.060658	1608.224287	-353.204252	804.831153	1514.894183	-97.893554	756.868067	1436.831918	-105.924739	689.087451	1478.047768	-97.788954	583.947851	1381.644341	-66.727494	574.150717	1386.037574	-149.252895	922.051641	1477.942241	-583.275403	925.341360	1405.306950	-570.280671	831.535128	1394.912110	-593.387035	831.849758	1229.049348	-634.980658	770.724217	1225.568432	-569.010341	650.674275	1296.547945	-59.875466	765.717598	1175.286027	-133.223308	715.770829	1144.877098	-89.040158	920.383929	1239.684437	-591.496199	1025.672493	1286.903056	-451.236098	1043.415457	1217.949503	-467.853759	
